<svg width="20" height="20" viewBox="0 0 20 20" fill="none" xmlns="http://www.w3.org/2000/svg">
<g clip-path="url(#clip0_17_3924)">
<path d="M3.39449 19.5H3.39466C3.51549 19.5 3.69176 19.4443 3.89209 19.2732L3.89323 19.2722L9.08384 14.8652C9.08402 14.865 9.0842 14.8648 9.08439 14.8647C9.3479 14.6399 9.69827 14.5299 10.0387 14.5299C10.3796 14.5299 10.7293 14.6402 10.993 14.8651L3.39449 19.5ZM3.39449 19.5C3.27043 19.5 3.15866 19.4422 3.08828 19.3413C3.01224 19.2321 2.9541 19.0765 2.9541 18.8639V1.69775C2.9541 1.07734 3.53573 0.5 4.22901 0.5H15.8332C16.5029 0.5 17.0452 1.05432 17.0452 1.69775V18.864C17.0452 19.1622 16.9623 19.3171 16.8953 19.3913C16.8289 19.4648 16.7426 19.5001 16.646 19.5001C16.534 19.5001 16.3776 19.4515 16.1678 19.2724L16.1673 19.2721L10.9935 14.8655L3.39449 19.5Z" stroke="#FF4B55"/>
</g>
<defs>
<clipPath id="clip0_17_3924">
<rect width="20" height="20" fill="white"/>
</clipPath>
</defs>
</svg>
